<?xml version="1.0" encoding="UTF-8" standalone="no"?>
<svg
   xmlns:dc="http://purl.org/dc/elements/1.1/"
   xmlns:cc="http://creativecommons.org/ns#"
   xmlns:rdf="http://www.w3.org/1999/02/22-rdf-syntax-ns#"
   xmlns:svg="http://www.w3.org/2000/svg"
   xmlns="http://www.w3.org/2000/svg"
   xmlns:sodipodi="http://sodipodi.sourceforge.net/DTD/sodipodi-0.dtd"
   xmlns:inkscape="http://www.inkscape.org/namespaces/inkscape"
   width="175.98625"
   height="175.98625"
   viewBox="0 0 496.67229 496.67221"
   version="1.1"
   id="svg2"
   inkscape:version="0.48.4 r9939"
   sodipodi:docname="AJAX1.svg">
  <metadata
     id="metadata62">
    <rdf:RDF>
      <cc:Work
         rdf:about="">
        <dc:format>image/svg+xml</dc:format>
        <dc:type
           rdf:resource="http://purl.org/dc/dcmitype/StillImage" />
        <dc:title></dc:title>
      </cc:Work>
    </rdf:RDF>
  </metadata>
  <defs
     id="defs60" />
  <sodipodi:namedview
     pagecolor="#ffffff"
     bordercolor="#666666"
     borderopacity="1"
     objecttolerance="10"
     gridtolerance="10"
     guidetolerance="10"
     inkscape:pageopacity="0"
     inkscape:pageshadow="2"
     inkscape:window-width="1280"
     inkscape:window-height="1004"
     id="namedview58"
     showgrid="false"
     fit-margin-top="0.6"
     fit-margin-left="0.6"
     fit-margin-right="0.6"
     fit-margin-bottom="0.6"
     inkscape:zoom="2.4713657"
     inkscape:cx="71.868851"
     inkscape:cy="56.12269"
     inkscape:window-x="-8"
     inkscape:window-y="-8"
     inkscape:window-maximized="1"
     inkscape:current-layer="svg2" />
  <polygon
     points="315,205 395,375 315,545 235,375 "
     id="polygon10"
     style="fill:none;stroke:#ffffff;stroke-width:40"
     transform="translate(652.58994,-226.3986)" />
  <!-- draw the bicycle -->
  <!-- RIGHT -->
  <!-- LANE -->
  <!-- ONLY -->
  <path
     inkscape:connector-curvature="0"
     style="fill:#ffffff;fill-rule:evenodd;stroke:#000000;stroke-opacity:1;stroke-width:2.25777768;stroke-miterlimit:4;stroke-dasharray:none"
     d="m 1.6933333,473.49477 c 0,11.88155 9.6049397,21.48417 21.4870597,21.48417 l 450.293237,0 c 11.85333,0 21.50533,-9.60262 21.50533,-21.48417 l 0,-450.293732 c 0,-11.85802 -9.652,-21.5077297 -21.50533,-21.5077297 l -450.293237,0 c -11.88212,0 -21.4870597,9.6497097 -21.4870597,21.5077297 l 0,450.293732 z"
     id="path13" />
  <path
     inkscape:connector-curvature="0"
     style="fill:#000000;fill-rule:evenodd;stroke:none"
     d="m 11.660013,473.49158 0,-450.294002 c 0,-6.34241 5.15387,-11.52383 11.52383,-11.52383 l 450.294017,0 c 6.34295,0 11.52172,5.18142 11.52172,11.52383 l 0,450.294002 c 0,6.36764 -5.17877,11.52172 -11.52172,11.52172 l -450.294017,0 c -6.36996,0 -11.52383,-5.15408 -11.52383,-11.52172 z"
     id="path17" />
  <path
     inkscape:connector-curvature="0"
     style="fill:#ffffff;fill-rule:evenodd;stroke:none"
     d="m 70.236888,435.07428 72.884602,0 0,-100.53991 c 2.84903,-37.75147 20.00215,-73.00525 47.89699,-98.58834 27.33003,-25.07685 63.03149,-39.02604 100.12503,-39.17068 l -18.7244,40.80369 c -3.55847,7.9823 -0.91969,17.35984 6.26322,22.31742 6.79379,4.68877 15.90604,4.21676 22.16925,-1.15781 L 436.97408,162.53086 299.80773,64.566238 c -6.49746,-4.68876 -15.28233,-4.56811 -21.65915,0.26882 -6.73876,5.10575 -9.02618,14.18696 -5.5813,21.90044 l 15.81996,39.501582 c -52.44111,0.47167 -102.94971,19.61268 -142.53737,54.00852 -45.46141,39.49805 -72.794992,95.88041 -75.612982,156.06643 l 0,98.76225 z"
     id="path19" />
</svg>
