<?xml version="1.0" encoding="UTF-8" standalone="no"?>
<!-- Created with Inkscape (http://www.inkscape.org/) -->

<svg
   width="1341.4716mm"
   height="555.39569mm"
   viewBox="0 0 1341.4715 555.39569"
   version="1.1"
   id="svg5"
   inkscape:version="1.1.2 (b8e25be833, 2022-02-05)"
   sodipodi:docname="QC-Exit.svg"
   xmlns:inkscape="http://www.inkscape.org/namespaces/inkscape"
   xmlns:sodipodi="http://sodipodi.sourceforge.net/DTD/sodipodi-0.dtd"
   xmlns="http://www.w3.org/2000/svg"
   xmlns:svg="http://www.w3.org/2000/svg">
  <sodipodi:namedview
     id="namedview7"
     pagecolor="#ffffff"
     bordercolor="#666666"
     borderopacity="1.0"
     inkscape:pageshadow="2"
     inkscape:pageopacity="0.0"
     inkscape:pagecheckerboard="0"
     inkscape:document-units="mm"
     showgrid="false"
     inkscape:zoom="2.8284271"
     inkscape:cx="1078.1611"
     inkscape:cy="-10.960155"
     inkscape:window-width="2304"
     inkscape:window-height="1190"
     inkscape:window-x="2293"
     inkscape:window-y="-11"
     inkscape:window-maximized="1"
     inkscape:current-layer="layer1" />
  <defs
     id="defs2">
    <clipPath
       clipPathUnits="userSpaceOnUse"
       id="clipPath1184">
      <path
         d="M 78.97,318.625 H 533.031 V 696 H 78.97 Z"
         id="path1182" />
    </clipPath>
  </defs>
  <g
     inkscape:label="Calque 1"
     inkscape:groupmode="layer"
     id="layer1"
     transform="translate(-50.345955,-81.316925)">
    <g
       id="g1510">
      <g
         id="g1222"
         transform="matrix(8.8194443,0,0,-8.8194443,727.95268,81.316925)">
        <path
           d="m 0,0 h 67.404 c 1.307,0 2.593,-0.326 3.742,-0.947 3.823,-2.068 5.245,-6.841 3.178,-10.662 L 46.71,-59.123 c -1.386,-2.384 -3.936,-3.851 -6.693,-3.851 H -7.81 -68.963 c -4.346,0 -7.868,3.522 -7.868,7.867 v 47.241 c 0,4.345 3.522,7.866 7.868,7.866 z"
           style="fill:#fddf12;fill-opacity:1;fill-rule:nonzero;stroke:none"
           id="path1224" />
      </g>
      <g
         id="g1230"
         transform="matrix(8.8194443,0,0,-8.8194443,1373.5121,178.14297)">
        <path
           d="m 0,0 -27.602,-47.494 c -1.154,-1.987 -3.28,-3.21 -5.578,-3.21 h -47.827 -61.153 c -3.634,0 -6.576,2.944 -6.576,6.576 v 47.24 c 0,3.632 2.942,6.576 6.576,6.576 h 68.963 67.404 c 1.086,0 2.155,-0.269 3.112,-0.783 C 0.52,7.186 1.719,3.199 0,0"
           style="fill:#231f20;fill-opacity:1;fill-rule:nonzero;stroke:none"
           id="path1232" />
      </g>
      <g
         id="g1234"
         transform="matrix(8.8194443,0,0,-8.8194443,1353.6164,167.07545)">
        <path
           d="m 0,0 -27.578,-47.452 c -0.693,-1.193 -1.967,-1.926 -3.346,-1.926 h -47.827 -61.153 c -2.207,0 -3.996,1.789 -3.996,3.995 v 47.24 c 0,2.207 1.789,3.996 3.996,3.996 h 68.963 67.404 c 0.646,0 1.285,-0.158 1.857,-0.458 C 0.273,4.369 1.025,1.953 0,0"
           style="fill:#fddf12;fill-opacity:1;fill-rule:nonzero;stroke:none"
           id="path1236" />
      </g>
    </g>
  </g>
</svg>
